<svg xmlns="http://www.w3.org/2000/svg" viewBox="0 0 1440 320"><path fill="#ff5500" fill-opacity="1" d="M0,320L30,277.3C60,235,120,149,180,138.7C240,128,300,192,360,202.7C420,213,480,171,540,165.3C600,160,660,192,720,176C780,160,840,96,900,69.3C960,43,1020,53,1080,85.3C1140,117,1200,171,1260,208C1320,245,1380,267,1410,277.3L1440,288L1440,320L1410,320C1380,320,1320,320,1260,320C1200,320,1140,320,1080,320C1020,320,960,320,900,320C840,320,780,320,720,320C660,320,600,320,540,320C480,320,420,320,360,320C300,320,240,320,180,320C120,320,60,320,30,320L0,320Z"></path></svg>