<svg xmlns="http://www.w3.org/2000/svg" xmlns:xlink="http://www.w3.org/1999/xlink" width="512" height="512" viewBox="0 0 512 512" fill="none"><defs><rect id="path_0" x="0" y="0" width="512" height="512" /><rect id="path_1" x="0" y="0" width="90" height="90" /></defs><g opacity="1" transform="translate(0 0)  rotate(0 256 256)"><mask id="bg-mask-0" fill="white"><use xlink:href="#path_0"></use></mask><g mask="url(#bg-mask-0)" ><path id="矩形 1" fill-rule="evenodd" style="fill:#008AFF" transform="translate(38.1163733940931 92.39404486209605)  rotate(-19.432228169890493 207.5 99)" opacity="0.57" d="M16,198L399,198C407.84,198 415,190.84 415,182L415,16C415,7.16 407.84,0 399,0L16,0C7.16,0 0,7.16 0,16L0,182C0,190.84 7.16,198 16,198Z " /><path id="矩形 1" fill-rule="evenodd" style="fill:#008AFF" transform="translate(37.88531431672112 198.0623413158071)  rotate(-9.857581011014517 207.5 99)" opacity="0.57" d="M16,198L399,198C407.84,198 415,190.84 415,182L415,16C415,7.16 407.84,0 399,0L16,0C7.16,0 0,7.16 0,16L0,182C0,190.84 7.16,198 16,198Z " /><g opacity="1" transform="translate(201 146)  rotate(-21.057126869237045 45 45)"><mask id="bg-mask-1" fill="white"><use xlink:href="#path_1"></use></mask><g mask="url(#bg-mask-1)" ><path id="路径 1" fill-rule="evenodd" style="fill:#FFEB3B" transform="translate(-0.040554420838758466 -1.7578129751782967e-7)  rotate(0 44.97225390475525 42.21422013570752)" opacity="1" d="M74.26,81.3C74.2,81.07 74.08,80.48 73.9,79.56C73.72,78.63 73.5,77.51 73.23,76.2C72.96,74.88 72.67,73.42 72.37,71.8C72.08,70.19 71.75,68.58 71.39,66.96C70.61,63.14 69.72,58.86 68.7,54.14L87.26,37.47C88.03,36.57 88.67,35.81 89.18,35.18C89.69,34.56 89.94,33.82 89.94,32.99C89.94,32.09 89.71,31.43 89.23,31.02C88.75,30.6 87.91,30.24 86.72,29.94L59.02,27.34L48.98,3.32C48.86,3.08 48.69,2.78 48.49,2.42C48.28,2.06 48.02,1.7 47.72,1.34C47.42,0.99 47.05,0.67 46.6,0.4C46.15,0.13 45.63,0 45.03,0C43.9,0 43,0.34 42.34,1.03C41.69,1.72 41.18,2.54 40.82,3.5L30.51,27.52L2.81,30.03C2.16,30.15 1.56,30.45 1.02,30.93C0.48,31.4 0.15,32.06 0.03,32.9C-0.09,33.74 0.11,34.56 0.62,35.36C1.12,36.17 1.74,36.9 2.45,37.56C2.51,37.62 2.84,37.9 3.44,38.41C4.04,38.92 4.8,39.58 5.73,40.38C6.65,41.19 7.7,42.09 8.86,43.07C10.03,44.06 11.21,45.06 12.4,46.08C15.21,48.47 18.38,51.19 21.91,54.23C20.77,58.89 19.76,63.08 18.86,66.78C18.44,68.4 18.04,69.98 17.65,71.53C17.26,73.09 16.92,74.51 16.62,75.79C16.32,77.08 16.05,78.18 15.81,79.11C15.57,80.03 15.42,80.62 15.36,80.86C15.24,81.39 15.3,81.92 15.54,82.43C15.78,82.93 16.15,83.37 16.66,83.73C17.17,84.08 17.74,84.31 18.37,84.4C18.99,84.49 19.61,84.38 20.2,84.08C20.5,83.96 21.08,83.67 21.95,83.19C22.82,82.71 23.85,82.11 25.04,81.39C26.24,80.68 27.57,79.9 29.03,79.06C30.5,78.23 31.98,77.39 33.47,76.55C36.94,74.58 40.79,72.34 45.03,69.83L68.43,83.46C68.73,83.58 69.16,83.74 69.73,83.95C70.3,84.16 70.73,84.26 71.03,84.26C71.93,84.26 72.73,84.07 73.45,83.68C74.17,83.29 74.44,82.5 74.26,81.3Z " /></g></g></g></g></svg>